# xmcd
#
# Track frame offsets:
#	150
#	16845
#	34597
#	51832
#	70517
#	93555
#	128617
#	142742
#	160195
#	175530
#	199132
#	213945
#
# Disc length: 3234 seconds
# Revision: 9
# Processed by: cddbd v1.5.2PL0 Copyright (c) Steve Scherf et al.
# Submitted via: dBpowerAMP V12.0
#
DISCID=910ca00c
DTITLE=Mighty Sam McClain - Blues For The Soul
DYEAR=2000
DGENRE=Soul
TTITLE0=All we Need is Love
TTITLE1=Dark Side of The Street
TTITLE2=Love One Another
TTITLE3=Going Back to New Orleans
TTITLE4=No One Can Take Your Place
TTITLE5=Jesus Got The Blues
TTITLE6=Sweet Lady
TTITLE7=Battlefield of Love
TTITLE8=Mighty's Prayer
TTITLE9=Sing me Some Blues
TTITLE10=Can't Stand it
TTITLE11=Not I
EXTD=
EXTT0=
EXTT1=
EXTT2=
EXTT3=
EXTT4=
EXTT5=
EXTT6=
EXTT7=
EXTT8=
EXTT9=
EXTT10=
EXTT11=
PLAYORDER=
